<?xml version="1.0" standalone="no"?>
<!DOCTYPE svg PUBLIC "-//W3C//DTD SVG 1.1//EN" "http://www.w3.org/Graphics/SVG/1.1/DTD/svg11.dtd" >
<!--
2013-9-30: Created.
-->
<svg>
<metadata>
Created by iconfont
</metadata>
<defs>

<font id="iconfont" horiz-adv-x="1024" >
  <font-face
    font-family="iconfont"
    font-weight="500"
    font-stretch="normal"
    units-per-em="1024"
    ascent="896"
    descent="-128"
  />
    <missing-glyph />
    
    <glyph glyph-name="x" unicode="x" horiz-adv-x="1001"
d="M281 543q-27 -1 -53 -1h-83q-18 0 -36.5 -6t-32.5 -18.5t-23 -32t-9 -45.5v-76h912v41q0 16 -0.5 30t-0.5 18q0 13 -5 29t-17 29.5t-31.5 22.5t-49.5 9h-133v-97h-438v97zM955 310v-52q0 -23 0.5 -52t0.5 -58t-10.5 -47.5t-26 -30t-33 -16t-31.5 -4.5q-14 -1 -29.5 -0.5
t-29.5 0.5h-32l-45 128h-439l-44 -128h-29h-34q-20 0 -45 1q-25 0 -41 9.5t-25.5 23t-13.5 29.5t-4 30v167h911zM163 247q-12 0 -21 -8.5t-9 -21.5t9 -21.5t21 -8.5q13 0 22 8.5t9 21.5t-9 21.5t-22 8.5zM316 123q-8 -26 -14 -48q-5 -19 -10.5 -37t-7.5 -25t-3 -15t1 -14.5
t9.5 -10.5t21.5 -4h37h67h81h80h64h36q23 0 34 12t2 38q-5 13 -9.5 30.5t-9.5 34.5q-5 19 -11 39h-368zM336 498v228q0 11 2.5 23t10 21.5t20.5 15.5t34 6h188q31 0 51.5 -14.5t20.5 -52.5v-227h-327z" />
    

    
    <glyph glyph-name="shangchuantupian" unicode="&#58929;" d="M863.197091 668.613818 728.252768 668.613818 728.252768 719.321212c0 30.417455-24.724687 55.143434-55.143434 55.143434L360.720808 774.464646c-35.812848 0-64.972283-29.160727-64.972283-64.973576l1.753212-40.877253L160.802909 668.613818C83.617616 668.613818 20.861414 605.825293 20.861414 528.637414l0-398.047677c0-77.186586 62.788525-139.942788 139.941495-139.942788L863.230707-9.353051c77.15297 0 139.909172 62.756202 139.909172 139.942788L1003.139879 528.637414C1003.139879 605.857616 940.351354 668.613818 863.197091 668.613818zM953.523717 130.556121c0-49.780364-40.512646-90.294303-90.29301-90.294303L160.802909 40.261818c-49.780364 0-90.29301 40.513939-90.29301 90.294303L70.509899 528.605091c0 49.81398 40.512646 90.326626 90.29301 90.326626l0 0.033616L297.535354 618.965333c26.413253 0 47.89398 21.480727 47.89398 47.89398l0 42.631758c0 8.440242 6.884848 15.325091 15.325091 15.325091l312.388525 0c3.044848 0 5.493657-2.450101 5.493657-5.494949l0-55.143434c0-24.922505 20.289939-45.212444 45.213737-45.212444L863.230707 618.965333c49.780364 0 90.29301-40.513939 90.29301-90.327919L953.523717 130.556121zM512.016808 531.815434c-110.682505 0-200.745374-90.062869-200.745374-200.745374s90.029253-200.745374 200.745374-200.745374 200.745374 90.062869 200.745374 200.745374S622.699313 531.815434 512.016808 531.815434zM512.016808 179.973172c-83.309899 0-151.096889 67.78699-151.096889 151.096889s67.753374 151.096889 151.096889 151.096889 151.096889-67.78699 151.096889-151.096889S595.326707 179.973172 512.016808 179.973172zM827.284687 459.063596c-26.445576 0-47.927596 21.48202-47.927596 47.927596 0 26.445576 21.48202 47.927596 47.927596 47.927596 26.445576 0 47.927596-21.48202 47.927596-47.927596C875.212283 480.545616 853.730263 459.063596 827.284687 459.063596L827.284687 459.063596zM827.284687 508.712081l-1.720889-1.720889c0-0.92703 0.761535-1.720889 1.720889-1.720889L827.284687 508.712081 827.284687 508.712081zM487.319273 206.464 487.319273 306.38804 387.390061 306.38804 387.390061 355.750788 487.319273 355.750788 487.319273 455.676121 536.683313 455.676121 536.683313 355.749495 636.612525 355.749495 636.612525 306.38804 536.683313 306.38804 536.683313 206.464Z"  horiz-adv-x="1024" />

    
    <glyph glyph-name="lianjie_icon" unicode="&#58976;" d="M511.999488 833.599811c-248.307296 0-449.599811-201.292516-449.599811-449.599811s201.292516-449.599811 449.599811-449.599811 449.599811 201.292516 449.599812 449.599811-201.292516 449.599811-449.599812 449.599811z m212.108863-473.867517L536.268218 171.892161c-31.568996-31.568996-73.541947-48.954969-118.188796-48.954968-44.644803 0-86.618776 17.385972-118.187773 48.954968-31.57002 31.57002-48.955992 73.54297-48.955991 118.189819 0 44.645826 17.386996 86.618776 48.955991 118.188796l78.643128 78.643128c44.030819 44.029796 115.673509 44.029796 159.702282 0 44.030819-44.029796 44.030819-115.672486 0-159.702281l-91.664699-91.665723c-10.232039-10.229992-26.819832-10.229992-37.051871 0-10.231015 10.232039-10.231015 26.819832 0 37.050847l91.665723 91.665723c23.600511 23.600511 23.600511 62.001099 0 85.600587-23.600511 23.600511-62.001099 23.600511-85.602634 0l-78.644151-78.643128c-44.73997-44.740994-44.73997-117.535927 0-162.27692 44.73997-44.73997 117.53695-44.73997 162.27692 0l187.840133 187.840132c44.738947 44.740994 44.738947 117.53695 0 162.275897-44.73997 44.740994-117.53695 44.73997-162.276921 0-10.229992-10.231015-26.818809-10.231015-37.050847 0-10.231015 10.232039-10.231015 26.819832 0 37.051871 31.568996 31.568996 73.543993 48.954969 118.187773 48.953945 44.647873 0 86.6198-17.384949 118.190842-48.953945 31.568996-31.571043 48.954969-73.543993 48.954969-118.189819s-17.384949-86.6198-48.953945-118.188796z"  horiz-adv-x="1024" />

    
    <glyph glyph-name="map" unicode="&#58903;" d="M456.8-98.4c27.2-30.4 72.8-30.4 100 0.8 2.4 2.4 7.2 8 14.4 16 12 12.8 24.8 28 38.4 44.8 40 47.2 80 98.4 117.6 150.4s70.4 103.2 96.8 151.2c49.6 88.8 76.8 165.6 76.8 228.8 0.8 222.4-176 402.4-394.4 402.4S112 716 112 493.6c0-63.2 27.2-140.8 76.8-229.6 27.2-48 60-99.2 96.8-151.2 37.6-52 77.6-103.2 117.6-150.4 14.4-16.8 27.2-32 38.4-44.8 8-8 12.8-13.6 15.2-16z m35.2 32.8c-2.4 2.4-7.2 8-14.4 16-11.2 12.8-24 28-37.6 44-39.2 46.4-78.4 96.8-115.2 147.2C288 192.8 256 241.6 230.4 288 184.8 370.4 160 440.8 160 493.6 160 688.8 315.2 847.2 506.4 847.2s347.2-158.4 347.2-353.6c0-52.8-24.8-123.2-70.4-204.8-25.6-46.4-57.6-96-94.4-146.4-36.8-51.2-76-100.8-115.2-147.2-13.6-16-26.4-31.2-37.6-44-7.2-8-12-12.8-14.4-16-8.8-9.6-20.8-10.4-29.6-0.8zM506.4 317.6c-108 0-196 88-196 196s88 196 196 196 196-88 196-196-88-196-196-196z m0 344c-81.6 0-148-66.4-148-148s66.4-148 148-148S654.4 432 654.4 513.6s-66.4 148-148 148z"  horiz-adv-x="1024" />

    
    <glyph glyph-name="guanbi" unicode="&#58887;" d="M588.4 379.9l198.8 198.8c21.1 21.1 21.1 55.3 0 76.4-21.1 21.1-55.3 21.1-76.4 0L512 456.3 313.2 655c-21.1 21.1-55.3 21.1-76.4 0-21.1-21.1-21.1-55.3 0-76.4l198.8-198.8-198-197.9c-21.1-21.1-21.1-55.3 0-76.4 21.1-21.1 55.3-21.1 76.4 0l198 197.9 197.9-197.9c21.1-21.1 55.3-21.1 76.4 0 21.1 21.1 21.1 55.3 0 76.4l-197.9 198z"  horiz-adv-x="1024" />

    
    <glyph glyph-name="pinglun" unicode="&#58952;" d="M816 88h-144c-4.8 0-8-1.6-11.2-4.8l-80-80c-36.8-36.8-97.6-36.8-136 0l-80 80c-3.2 3.2-6.4 4.8-11.2 4.8h-144c-70.4 0-128 57.6-128 128v448c0 70.4 57.6 128 128 128h608c70.4 0 128-57.6 128-128v-448c-1.6-70.4-59.2-128-129.6-128z m0 64c35.2 0 64 28.8 64 64v448c0 35.2-28.8 64-64 64H208c-35.2 0-64-28.8-64-64v-448c0-35.2 28.8-64 64-64h144c20.8 0 41.6-8 56-24l80-80c12.8-12.8 32-12.8 44.8 0l80 80c14.4 14.4 35.2 24 56 24H816z m-496 336c27.2 0 48-20.8 48-48v-32c0-27.2-20.8-48-48-48s-48 20.8-48 48v32c0 27.2 20.8 48 48 48z m192 0c27.2 0 48-20.8 48-48v-32c0-27.2-20.8-48-48-48s-48 20.8-48 48v32c0 27.2 20.8 48 48 48z m192 0c27.2 0 48-20.8 48-48v-32c0-27.2-20.8-48-48-48s-48 20.8-48 48v32c0 27.2 20.8 48 48 48z"  horiz-adv-x="1024" />

    
    <glyph glyph-name="user" unicode="&#58919;" d="M792.00256 318.34112c-66.60096-65.86368-153.06752-109.7728-252.928-109.7728-99.81952 0-186.32704 43.90912-259.56352 109.7728C113.21344 223.27296 0 98.9184 0-128h1064.96c0 226.87744-113.17248 343.90016-272.95744 446.34112zM532.48 303.02208c159.04768 0 286.39232 135.41376 286.39232 296.50944S691.56864 896 532.43904 896c-159.17056 0-286.3104-135.24992-286.3104-296.46848 0-167.5264 133.5296-296.50944 286.3104-296.50944z"  horiz-adv-x="1064" />

    
    <glyph glyph-name="linju" unicode="&#58920;" d="M1007.4112-40.79616h-49.9712V579.25632c0 16.67072-8.88832 32.07168-23.26528 40.46848L680.3456 767.83616a46.77632 46.77632 0 0 1-70.41024-40.46848v-768.16384h-53.248V849.14176A46.85824 46.85824 0 0 1 491.47904 892.19072L94.78144 721.83808c-17.2032-7.3728-28.38528-24.28928-28.38528-43.008v-719.6672H16.5888a16.5888 16.5888 0 0 1-16.5888-16.5888v-53.98528c0-9.17504 7.41376-16.5888 16.5888-16.5888h990.8224a16.5888 16.5888 0 0 1 16.5888 16.5888v53.98528a16.5888 16.5888 0 0 1-16.5888 16.62976zM739.24608 600.10496c0 9.13408 7.41376 16.5888 16.5888 16.5888h52.67456c9.17504 0 16.5888-7.45472 16.5888-16.5888v-52.75648a16.5888 16.5888 0 0 0-16.5888-16.5888h-52.67456a16.5888 16.5888 0 0 0-16.5888 16.5888V600.10496z m0-132.79232c0 9.17504 7.41376 16.5888 16.5888 16.5888h52.67456c9.17504 0 16.5888-7.41376 16.5888-16.5888v-52.75648a16.5888 16.5888 0 0 0-16.5888-16.5888h-52.67456a16.5888 16.5888 0 0 0-16.5888 16.5888v52.75648z m0-132.79232c0 9.17504 7.41376 16.5888 16.5888 16.5888h52.67456c9.17504 0 16.5888-7.41376 16.5888-16.5888v-52.71552a16.5888 16.5888 0 0 0-16.5888-16.62976h-52.67456a16.5888 16.5888 0 0 0-16.5888 16.62976v52.71552z m0-132.79232c0 9.17504 7.41376 16.62976 16.5888 16.62976h52.67456c9.17504 0 16.5888-7.45472 16.5888-16.62976v-52.71552a16.5888 16.5888 0 0 0-16.5888-16.5888h-52.67456a16.5888 16.5888 0 0 0-16.5888 16.5888V201.728z m0-132.75136c0 9.17504 7.41376 16.5888 16.5888 16.5888h52.67456c9.17504 0 16.5888-7.41376 16.5888-16.5888v-52.75648a16.5888 16.5888 0 0 0-16.5888-16.5888h-52.67456a16.5888 16.5888 0 0 0-16.5888 16.5888V69.0176zM347.83232 732.85632c0 9.17504 7.41376 16.5888 16.5888 16.5888h52.67456c9.17504 0 16.5888-7.41376 16.5888-16.5888V680.1408a16.5888 16.5888 0 0 0-16.5888-16.5888H364.42112a16.5888 16.5888 0 0 0-16.5888 16.5888V732.85632z m0-132.75136c0 9.13408 7.41376 16.5888 16.5888 16.5888h52.67456c9.17504 0 16.5888-7.45472 16.5888-16.5888v-52.75648a16.5888 16.5888 0 0 0-16.5888-16.5888H364.42112a16.5888 16.5888 0 0 0-16.5888 16.5888V600.10496z m0-132.79232c0 9.17504 7.41376 16.5888 16.5888 16.5888h52.67456c9.17504 0 16.5888-7.41376 16.5888-16.5888v-52.75648a16.5888 16.5888 0 0 0-16.5888-16.5888H364.42112a16.5888 16.5888 0 0 0-16.5888 16.5888v52.75648z m0-132.79232c0 9.17504 7.41376 16.5888 16.5888 16.5888h52.67456c9.17504 0 16.5888-7.41376 16.5888-16.5888v-52.71552a16.5888 16.5888 0 0 0-16.5888-16.62976H364.42112a16.5888 16.5888 0 0 0-16.5888 16.62976v52.71552z m0-132.79232c0 9.17504 7.41376 16.62976 16.5888 16.62976h52.67456c9.17504 0 16.5888-7.45472 16.5888-16.62976v-52.71552a16.5888 16.5888 0 0 0-16.5888-16.5888H364.42112a16.5888 16.5888 0 0 0-16.5888 16.5888V201.728z m0-132.75136c0 9.17504 7.41376 16.5888 16.5888 16.5888h52.67456c9.17504 0 16.5888-7.41376 16.5888-16.5888v-52.75648a16.5888 16.5888 0 0 0-16.5888-16.5888H364.42112a16.5888 16.5888 0 0 0-16.5888 16.5888V69.0176z m-159.744 531.12832c0 9.13408 7.45472 16.5888 16.62976 16.5888h52.67456c9.17504 0 16.5888-7.45472 16.5888-16.5888v-52.75648a16.5888 16.5888 0 0 0-16.5888-16.5888H204.71808a16.5888 16.5888 0 0 0-16.5888 16.5888V600.10496z m0-132.79232c0 9.17504 7.45472 16.5888 16.62976 16.5888h52.67456c9.17504 0 16.5888-7.41376 16.5888-16.5888v-52.75648a16.5888 16.5888 0 0 0-16.5888-16.5888H204.71808a16.5888 16.5888 0 0 0-16.5888 16.5888v52.75648z m0-132.79232c0 9.17504 7.45472 16.5888 16.62976 16.5888h52.67456c9.17504 0 16.5888-7.41376 16.5888-16.5888v-52.71552a16.5888 16.5888 0 0 0-16.5888-16.62976H204.71808a16.5888 16.5888 0 0 0-16.5888 16.62976v52.71552z m0-132.79232c0 9.17504 7.45472 16.62976 16.62976 16.62976h52.67456c9.17504 0 16.5888-7.45472 16.5888-16.62976v-52.71552a16.5888 16.5888 0 0 0-16.5888-16.5888H204.71808a16.5888 16.5888 0 0 0-16.5888 16.5888V201.728z m0-132.75136c0 9.17504 7.45472 16.5888 16.62976 16.5888h52.67456c9.17504 0 16.5888-7.41376 16.5888-16.5888v-52.75648a16.5888 16.5888 0 0 0-16.5888-16.5888H204.71808a16.5888 16.5888 0 0 0-16.5888 16.5888V69.0176z"  horiz-adv-x="1024" />

    
    <glyph glyph-name="release" unicode="&#58921;" d="M504.576 896C225.905778 896 0 670.094222 0 391.424c0-278.641778 225.905778-504.547556 504.576-504.547556 278.641778 0 504.547556 225.877333 504.547556 504.547556S783.217778 896 504.604444 896z m233.130667-536.576h-202.581334v-202.581333a30.72 30.72 0 0 0-30.776889-30.776889 30.72 30.72 0 0 0-30.776888 30.776889v202.581333H270.990222a30.72 30.72 0 0 0-30.776889 30.748444A30.72 30.72 0 0 0 270.990222 420.977778h202.695111V623.530667a30.72 30.72 0 0 0 30.748445 30.776889 30.72 30.72 0 0 0 30.776889-30.776889V420.977778h202.581333a30.72 30.72 0 0 0 30.663111-30.776889 30.72 30.72 0 0 0-30.748444-30.748445z"  horiz-adv-x="1024" />

    
    <glyph glyph-name="home" unicode="&#58922;" d="M1138.781153 386.686713L630.195758 874.578827A77.653139 77.653139 0 0 1 576.09456 895.99744a77.610473 77.610473 0 0 1-54.143865-21.418613L233.780749 598.184851a0.682665 0.682665 0 0 0-0.682665-0.127999 0.639998 0.639998 0 0 0-0.426665 0.554665V711.293902c0 18.517287-13.1413 35.83991-32.213253 38.613237a39.253235 39.253235 0 0 1-30.719923-8.362646 36.010577 36.010577 0 0 1-13.311967-27.775931v-189.610192a0.639998 0.639998 0 0 0-0.213333-0.426666L13.407967 386.686713c-15.189295-14.549297-18.303954-38.442571-4.479989-54.186531 7.253315-8.405312 17.877289-13.439966 29.226594-13.909298a41.386563 41.386563 0 0 1 30.37859 11.306638l88.405113 84.821121c0.426666 0.426666 1.109331 0.085333 1.10933-0.469332l-1.578663-469.118827c0-40.362566 34.133248-73.130484 76.245143-73.130484h686.718283c42.111895 0 76.287809 32.767918 76.28781 73.130484l-1.578663 469.118827c0 0.554665 0.682665 0.853331 1.10933 0.426666l88.405113-84.778455a41.386563 41.386563 0 0 1 30.37859-11.306638 41.087897 41.087897 0 0 1 29.226594 13.866632c13.823965 15.786627 10.709307 39.679901-4.479989 54.229197zM519.134702 585.17155c0 30.207924 25.471936 54.741196 56.959858 54.869197 30.975923-0.767998 55.722527-25.130604 55.722527-54.869197 0-29.738592-24.746605-54.058532-55.722527-54.826529-31.487921 0.085333-56.959858 24.618605-56.959858 54.826529z m-57.17319-639.443734v218.282121c0 9.813309 4.053323 19.285285 11.306638 26.239934a39.551901 39.551901 0 0 0 27.391932 10.879973h150.868956c10.282641 0 20.138616-3.882657 27.391932-10.879973 7.253315-6.954649 11.349305-16.383959 11.349305-26.239934v-218.282121a0.639998 0.639998 0 0 0-0.213333-0.426666 0.682665 0.682665 0 0 0-0.426666-0.213333H462.60151a0.639998 0.639998 0 0 0-0.639998 0.639999z"  horiz-adv-x="1152" />

    
    <glyph glyph-name="nearby" unicode="&#58923;" d="M528.659692 896C758.390154 896 945.270154 718.848 945.230769 501.090462c0-80.896-25.6-158.72-73.609846-224.177231-2.363077-3.938462-4.844308-7.719385-7.68-11.421539l-304.049231-379.982769c-8.270769-8.704-19.377231-13.508923-31.232-13.508923-11.736615 0-22.882462 4.844308-32.531692 15.123692l-302.670769 378.486154c-2.993231 3.741538-5.513846 7.876923-6.931693 10.24a378.801231 378.801231 0 0 0-74.436923 225.201231C112.088615 718.848 298.968615 896 528.659692 896z m0-536.182154c82.038154 0 148.795077 63.291077 148.795077 141.115077 0 77.784615-66.756923 141.036308-148.795077 141.036308S379.864615 578.678154 379.864615 500.972308c0-77.824 66.756923-141.115077 148.795077-141.115077z"  horiz-adv-x="1024" />

    
    <glyph glyph-name="count" unicode="&#58924;" d="M558.551893 384c0-28.757333 5.461333-57.514667 15.957334-84.053333 10.496-26.624 26.026667-50.944 45.482666-71.253334 19.370667-20.394667 42.666667-36.693333 68.010667-47.701333a201.898667 201.898667 0 0 1 228.437333 47.701333c19.456 20.309333 34.986667 44.629333 45.482667 71.253334a229.461333 229.461333 0 0 1 0 168.106666 221.269333 221.269333 0 0 1-45.482667 71.253334 209.92 209.92 0 0 1-68.010666 47.616 201.984 201.984 0 0 1-228.437334-47.616c-19.456-20.309333-34.986667-44.629333-45.482666-71.253334A229.546667 229.546667 0 0 1 558.551893 384z m964.096 53.077333s-0.853333 20.906667-185.685333 201.984C1072.855893 878.421333 837.335893 912.810667 662.061227 890.026667 486.957227 867.413333 355.20256 768.512 344.621227 762.368 261.335893 713.898667 26.49856 472.746667 12.41856 442.624c-33.365333-71.850667 12.288-143.701333 12.288-143.701333S403.84256-128 748.247893-128c344.405333 0 507.904 155.050667 577.024 211.541333 69.12 56.405333 154.026667 158.976 197.376 219.733334 30.464 68.096 0 133.802667 0 133.802666zM768.215893 15.189333c-194.389333 0-352 165.12-352 368.810667S573.82656 752.810667 768.215893 752.810667 1120.215893 587.690667 1120.215893 384 962.605227 15.189333 768.215893 15.189333z"  horiz-adv-x="1536" />

    
    <glyph glyph-name="guanlianx" unicode="&#58925;" d="M512 896C229.248 896 0 666.752 0 384s229.248-512 512-512 512 229.248 512 512S794.752 896 512 896z m-28.245333-745.642667l-30.762667-29.781333a145.493333 145.493333 0 0 0-101.461333-40.576c-36.693333 0-73.429333 13.525333-101.376 40.533333a136.106667 136.106667 0 0 0 0 197.077334l113.237333 109.568c70.4 68.096 151.210667 77.866667 205.952 24.96 14.72-14.293333 14.805333-37.546667 0.170667-51.968a38.314667 38.314667 0 0 0-53.290667-0.170667c-32.170667 31.146667-76.288-2.304-99.754667-25.002667l-113.28-109.568a64 64 0 0 1 0-92.714666 70.101333 70.101333 0 0 1 96.682667 0l30.805333 29.781333a38.4 38.4 0 0 0 53.290667-0.170667 36.096 36.096 0 0 0-0.213333-51.968z m290.133333 280.661334l-120.832-116.864c-37.333333-36.096-76.586667-54.357333-113.749333-54.357334-30.293333 0-59.306667 12.16-84.650667 36.693334a36.053333 36.053333 0 0 0-0.170667 51.968 38.357333 38.357333 0 0 0 53.248 0.170666c11.093333-10.666667 36.992-35.797333 92.202667 17.664l120.874667 116.906667a64.213333 64.213333 0 0 1-0.042667 92.757333c-24.064 23.253333-60.928 34.56-89.130667 7.253334l-38.314666-37.12a38.4 38.4 0 0 0-53.290667 0.213333 36.053333 36.053333 0 0 0 0.213333 51.968l38.314667 37.12c54.4 52.608 136.533333 49.493333 195.285333-7.338667a136.192 136.192 0 0 0 0-197.034666z"  horiz-adv-x="1024" />

    
    <glyph glyph-name="dianzan-copyx" unicode="&#58926;" d="M979.458784 540.758203h-241.904881c-17.91888 3.007812-23.870508 20.926692-26.87832 29.822136V788.550716C710.739579 848.258984 662.998563 896 603.226298 896c-53.75664 0-98.55384-41.789388-107.51328-92.538216-32.765952-206.003125-158.198113-274.670833-238.833073-295.53353a58.23636 58.23636 0 0 0 3.007812-20.926692v-579.163802c0-11.903256-3.007812-23.806512-8.95944-35.773764h585.243422c56.764452 11.967252 95.610024 32.829948 122.488345 89.5944l122.424348 429.861134c23.870508 77.563152-14.975064 152.246485-101.561652 149.238673zM209.010937-95.106056V487.065558c0 17.91888-23.870508 32.829948-50.748828 32.829949h-80.634961C35.83776 519.831511 0 483.99375 0 442.268358v-489.569402C0-92.098244 32.829948-127.936004 77.627148-127.936004h80.634961c26.87832 0 50.748828 14.911068 50.748828 32.829948z"  horiz-adv-x="1088" />

    
    <glyph glyph-name="pinglunx" unicode="&#58927;" d="M155.704889 896h826.368C1067.804444 896 1137.777778 826.88 1137.777778 742.058667v-493.112889c0-84.821333-69.973333-153.941333-155.704889-153.941334h-47.672889L915.285333-128l-197.006222 223.004444H155.704889C69.973333 95.004444 0 164.124444 0 248.945778V742.058667C0 826.88 69.973333 896 155.704889 896z m699.164444-461.767111c41.358222 0 76.344889 34.588444 76.344889 75.434667 0 40.789333-34.986667 75.377778-76.288 75.377777s-76.231111-34.588444-76.231111-75.377777c-3.242667-40.846222 31.744-75.434667 76.231111-75.434667z m-285.980444 0c41.301333 0 76.231111 34.588444 76.231111 75.434667 0 40.789333-34.929778 75.377778-76.231111 75.377777-41.301333 0-76.231111-34.588444-76.231111-75.377777 0-40.846222 34.929778-75.434667 76.231111-75.434667z m-282.851556 0c41.301333 0 76.231111 34.588444 76.231111 75.434667 0 40.789333-34.929778 75.377778-76.231111 75.377777-41.301333 0-76.231111-34.588444-76.231111-75.377777-3.242667-40.846222 31.744-75.434667 76.231111-75.434667z"  horiz-adv-x="1137" />

    
    <glyph glyph-name="wodepinglunx" unicode="&#58928;" d="M532.48 896C238.3872 896 0 694.43584 0 445.76768 0 84.82816 330.50624 17.94048 532.48-128c215.08096 176.82432 532.48 207.6672 532.48 573.76768C1064.96 694.39488 826.5728 896 532.48 896zM282.33728 328.2944c-59.92448 0-108.46208 47.67744-108.46208 106.45504 0 58.73664 48.5376 106.41408 108.46208 106.41408s108.50304-47.67744 108.50304-106.41408c0-58.7776-48.57856-106.41408-108.50304-106.41408z m269.23008 0c-59.92448 0-108.46208 47.67744-108.46208 106.45504 0 58.73664 48.5376 106.41408 108.46208 106.41408s108.50304-47.67744 108.50304-106.41408c0-58.7776-48.57856-106.41408-108.50304-106.41408z m258.048 0c-59.96544 0-108.544 47.67744-108.544 106.45504 0 58.73664 48.57856 106.41408 108.544 106.41408 59.88352 0 108.46208-47.67744 108.46208-106.41408 0-58.7776-48.57856-106.41408-108.50304-106.41408z"  horiz-adv-x="1064" />

    
    <glyph glyph-name="build" unicode="&#58930;" d="M886.436-53.522V518.043L513.266 891.214l-381.04-373.171v-571.564H18.858v-72.43h989.726v72.43H886.436z m-507.003 10.497h-141.71V82.941h141.71v-125.966z m0 197.346h-141.71V280.286h141.71V154.32z m0 188.946h-141.71V469.231h141.71v-125.964z m193.928-386.292H431.656V82.941H573.36v-125.966z m193.934 0h-141.71V82.941h141.71v-125.966z m0 197.346h-141.71V280.286h141.71V154.32z m0 188.946h-141.71V469.231h141.71v-125.964z"  horiz-adv-x="1024" />

    
    <glyph glyph-name="love" unicode="&#58931;" d="M625.914 871.242c-102.37-8.029-148.093-59.068-164.59-102.372-32.123-84.306 30.4-165.915 108.393-168.61 116.413-4.015 144.518 94.344 130.467 142.517-8.622 29.553-19.503 42.473-26.627 48.059 9.974-6.047 12.955-5.474 25.286-23.973 10.708-16.06 12.043-24.086 12.043-24.086s95.01-15.39 123.115-125.79c36.872-144.854-57.544-243.546-57.544-243.546s8.031 98.359-70.254 140.51c-78.287 42.15-152.55 20.07-218.792-42.151-66.235-62.234-92.336-90.326-140.507-70.254-48.17 20.07-18.066 76.268 12.045 124.447 30.111 48.174 64.234 66.24 64.234 66.24s-24.09 1.001-39.138-4.017c-15.058-5.016-22.088-9.03-22.088-9.03s-20.071 26.095-53.188 47.168c-33.123 21.078-59.217 26.1-59.217 26.1s26.094-2.012 44.161-7.036c18.063-5.01 17.064 89.328 17.064 89.328S131.78 659.025 89.974 475.806c-68.242-299.079 357.29-580.094 357.29-580.094s359.97 231.503 467.027 520.55c89.511 241.667-51.556 473.551-288.377 454.98zM519.533 66.333c-13.048-56.207-71.261-139.505-71.261-139.505s-50.185 84.302-60.215 143.517c-10.04 59.215 30.989 87.318 68.248 87.318 42.155 0 76.272-35.127 63.228-91.33z"  horiz-adv-x="1024" />

    
    <glyph glyph-name="edtu" unicode="&#58932;" d="M513.147 311.292c-15.947 0-39.468 1.747-61.04 10.031l-172.596 66.501h-84.542v-103.565c0-31.84 23.684-67.975 52.884-80.663l208.987-90.967c29.2-12.688 76.605-12.743 105.841-0.127l211.263 91.222c29.218 12.615 52.921 48.697 52.921 80.537V387.826h-93.298l-152.954-64.48c-18.386-7.773-42.38-12.051-67.466-12.051zM46.313 523.009l416.19-160.363c29.728-11.433 77.605-10.686 106.951 1.693l397.458 167.536v-247.18l-24.558-81.938h71.015l-25.413 82.794V541.87h-0.71c17.167 11.833 13.162 26.596-12.252 35.681L570.637 721.439c-30.001 10.704-78.479 10.25-108.299-0.946L46.494 564.044c-29.819-11.214-29.891-29.6-0.182-41.033z"  horiz-adv-x="1024" />

    
    <glyph glyph-name="car" unicode="&#58933;" d="M990.277 403.758c0 27.913-34.886 50.553-77.921 50.553-13.985 0-27.076-2.414-38.416-6.595l-58.991 168.39c-13.564 22.359-15.271 46.331-36.789 46.331h-92.801l-13.252 68.048c-5.471 19.263-31.521 27.186-53.036 27.186H406.955c-21.515 0-47.738-7.923-53.027-27.186l-13.261-68.048h-92.803c-21.515 0-27.467-26.743-36.8-46.331l-58.967-168.39c-11.35 4.182-24.462 6.595-38.437 6.595-43.034 0-77.913-22.641-77.913-50.553 0-27.91 34.879-50.551 77.913-50.551 0.352 0 0.692 0.038 1.044 0.038 0.201-1.246 0.282-2.414 0.583-3.699-3.619-63.221 31.31-268.976 37.341-299.701 7.842-34.546 20.692-40.458 42.208-40.458h79.54c21.515 0 34.105 18.138 34.105 40.458v43.877c10.124-1.044 20.681-2.012 32.182-2.694 125.52-7.562 237.061-8.485 344.694 0 11.323 0.885 21.929 1.97 32.194 3.137v-44.32c0-22.32 12.578-40.458 34.094-40.458h79.55c21.516 0 36.787 16.972 42.198 40.458 12.619 36.679 63.648 252.924 50.363 303.965 37.613 3.578 66.518 24.532 66.518 49.95zM247.863 186.263c-43.938 0-79.539 36.557-79.539 81.641s35.601 81.642 79.539 81.642c43.927 0 79.551-36.558 79.551-81.642s-35.623-81.641-79.551-81.641z m397.72 231.29c-55.236-7.522-196.782-4.745-238.628 0-41.857 4.705-137.453 16.53-137.453 16.53-21.517 0-38.961 18.137-38.961 40.458l19.497 80.879c8.101 28.433 16.085 39.01 37.604 39.01h450.745c21.527 0 29.491-10.577 37.615-39.01l19.476-80.879c0-22.321-17.444-40.458-38.961-40.458-0.002-0.001-55.684-8.971-110.934-16.53z m145.84-231.29c-43.936 0-79.55 36.557-79.55 81.641s35.613 81.642 79.55 81.642c43.918 0 79.539-36.558 79.539-81.642s-35.622-81.641-79.539-81.641z"  horiz-adv-x="1024" />

    
    <glyph glyph-name="friend" unicode="&#58934;" d="M473.872 657.809c0-22.094 40.171-64.274 72.308-56.24 28.119 8.035 56.24 38.162 68.291 40.171l251.071-247.054c22.094 22.094 92.394 92.395 104.446 106.454 54.232 50.213 54.232 116.498-4.016 172.736-28.119 28.119-96.412 104.446-154.659 144.617-50.213 34.146-92.395 20.086-140.6-12.052-68.291-46.197-130.557-90.385-196.839-148.634z m164.703-427.825c12.052-14.061 12.052-36.155 0-50.213l-58.249-56.24c-12.052-14.061-34.146-14.061-48.205 0-14.061 12.052-14.061 34.146 0 48.206l56.24 58.249c14.06 12.052 36.155 12.052 50.213 0z m-68.292 66.283c14.061-12.052 14.061-34.146 0-48.205l-58.249-56.24c-12.052-14.061-34.146-14.061-48.205 0-14.061 12.052-14.061 34.146 0 48.206l56.24 56.24c14.061 14.061 36.155 14.061 50.213 0z m-68.29 68.289c14.061-12.052 14.061-34.146 0-48.206l-58.249-58.249c-12.052-12.052-34.146-12.052-48.206 0-14.06 14.061-14.06 36.155 0 50.213l56.24 56.24c14.061 14.061 36.155 14.061 50.213 0z m-68.292 68.293c14.061-12.052 14.061-34.146 0-48.206l-58.249-58.249c-12.052-12.052-34.146-12.052-48.205 0-14.061 14.061-14.061 36.155 0 50.213l56.24 56.24c14.06 14.06 36.155 14.06 50.213 0zM184.638 645.757l136.583 138.592c36.155 34.146 84.36 60.257 126.54 46.197l14.06-6.026 104.446-50.213c-50.213-40.171-88.377-64.274-136.582-106.454 42.18-112.479 118.506-114.488 182.78-66.283l102.437-102.437 136.583-138.592c14.061-14.06 14.061-36.155 0-48.205-12.052-14.061-34.146-14.061-48.206 0l-126.54 126.54c-18.078 18.077-36.155-2.009-20.086-18.077l126.54-128.548c14.061-14.061 14.061-36.155 0-48.205-12.052-14.061-34.146-14.061-48.205 0l-126.54 124.531c-20.086 20.086-32.137-4.016-18.077-18.078l126.54-126.54c12.052-14.061 12.052-36.155 0-48.206-14.061-14.061-34.146-14.061-48.205-2.009 12.052 24.103 10.042 54.232-10.042 74.317-14.061 14.061-32.137 20.086-50.213 18.078 0 18.077-6.025 38.162-18.077 50.213-14.06 14.061-32.138 20.086-50.213 18.077 2.009 18.078-6.025 38.162-18.077 50.213-14.061 14.06-32.137 20.086-50.213 18.077 2.009 18.077-4.016 36.155-18.077 50.213-24.103 24.103-64.274 24.103-90.386 0l-56.24-56.24-122.522 124.531c-34.146 34.146-22.094 102.437 0 124.531z m465.988-492.101c10.042-14.061 10.042-34.146-2.009-46.197-14.06-14.061-34.146-14.061-46.197-4.016l48.205 50.213z"  horiz-adv-x="1171" />

    
    <glyph glyph-name="boss" unicode="&#58935;" d="M287.519 542.761v26.726h-29.573v22.549c0 6.328 0.716 11.96 2.826 17.572 0.696 1.413 1.413 2.15 1.413 2.826-0.717 0.696-3.523 0.696-7.741 0.696-3.523 0.717-13.374 1.413-29.553 1.413v-45.056h-38.728v-26.726h38.707v-35.185l-44.339-11.98 14.09-32.38 28.836 11.961v-42.947c1.413-8.417-9.134-11.243-32.379-8.417 6.35-7.065 11.264-17.613 13.374-30.966 37.314-2.13 55.603 6.329 53.494 25.293v69.673c2.826 0.737 7.024 2.13 14.07 4.24 5.631 0.696 9.85 2.13 13.373 3.502l-0.717 30.31c-9.134-4.24-19.005-7.741-28.16-10.568V542.74h31.007zM704.84 734.188v11.96c0 8.458 0.676 16.896 2.826 25.334 2.11 6.348 3.502 11.264 3.502 15.482 4.24 4.24-12.657 6.35-50.668 6.35h-47.185v-59.126H483.84v21.81H139.715v-81.653h47.145v-46.449h82.35v46.449h75.305v-46.449h82.35v46.449h44.339v-259.666h378.614V734.167H704.84z m-91.525-244.204h-54.17v49.95h54.17v-49.95z m2.846 118.927h-56.996v49.951h56.996v-49.95z m139.346-118.927h-54.19v49.95h54.19v-49.95z m0 118.927h-54.19v49.951h54.19v-49.95zM356.475 527.954c5.632-9.83 8.438-19.681 8.438-30.229 35.901-2.13 53.493 4.916 52.777 20.399 2.13 11.98 4.239 33.771 7.045 64.757 0.696 6.329 1.392 13.394 2.11 20.398H288.91v-25.313h36.598c-1.413-33.096-14.766-55.583-38.707-67.563 10.547-11.244 17.572-17.593 20.418-19.723h-10.567v-99.922h31.662v12.678h53.494v-12.678h36.597V490.68h-106.27c31.662 21.136 47.145 49.972 47.145 87.286h31.662c-4.22-19.702-6.329-33.096-7.025-40.837 0.696-8.438-8.458-11.264-27.443-9.175z m-28.16-63.324h54.907v-37.294h-54.907V464.63zM426.844 378.081h-87.961v-100.638c-23.225-4.22-45.753-7.025-66.15-9.135V378.081H186.86v-122.45c-20.399-6.348-36.598-9.83-47.145-9.83 2.109-9.85 6.348-24.637 12.677-43.643 4.219-20.398 8.437-35.205 12.677-43.663h2.806c2.805 0 9.154 1.413 18.985 3.563 21.114 10.568 71.802 23.92 152.023 40.1v-228.045l87.961 142.193V218.337c6.349 0 16.2 0.676 28.856 2.806 12.678 2.11 22.528 4.219 30.966 6.349 0 23.224 1.413 47.862 3.523 74.608l-63.345-11.98V378.08zM884.306 318.28v71.762H452.178v-71.762h116.818c-8.438-35.902-16.876-71.127-25.334-106.271h195.666c-4.24-42.25-11.264-64.041-21.811-66.15-12.657-1.414-41.513-1.414-85.156 0 14.787-20.419 22.528-48.559 25.334-83.764 79.524 0 126.669 7.045 141.435 21.832 19.026 16.18 33.771 83.026 44.339 199.864H657.695l12.656 34.51h213.955z"  horiz-adv-x="1024" />

    
    <glyph glyph-name="type" unicode="&#58936;" d="M299.8 202.9c1.4 0.6 2.7 1.4 4.1 2 16.7 32.4 37.2 59.6 60.4 80.2-100 40.3-170.6 137.1-170.6 250.7 0 13.5 1.3 26.6 3.2 39.6-97-13.3-171.8-94.2-171.8-192.3 0-81.6 51.7-151.3 124.9-180.1-47-41-78.8-119.2-78.8-209h185.2c0 78.2 17.1 149.9 45.5 206.7-0.7 0.7-1.3 1.5-2.1 2.2zM992.6 383.1c0 98.1-74.8 179.1-171.9 192.3 1.9-13 3.2-26.1 3.2-39.6 0-113.5-70.6-210.4-170.6-250.7 23.2-20.6 43.7-47.8 60.4-80.2 1.4-0.6 2.7-1.4 4.1-2-0.8-0.7-1.4-1.5-2.2-2.2 28.4-56.8 45.5-128.6 45.5-206.7h185.2c0 89.8-31.8 168-78.8 208.9 73.4 28.9 125.1 98.6 125.1 180.2zM611.5 284.8c100 40.2 170.6 137.4 170.6 250.9 0 149.6-122.4 270.9-273.3 270.9S235.5 685.3 235.5 535.7c0-113.6 70.6-210.7 170.6-250.9C342 227.7 298.5 118.9 298.5-6h420.6c0.1 124.9-43.4 233.7-107.6 290.8zM508.8 385.4c-60.9 0-110.5 42.1-110.5 93.8 0 10.7 8.7 19.3 19.3 19.3s19.3-8.7 19.3-19.3c0-30.4 32.2-55.1 71.8-55.1s71.8 24.7 71.8 55.1c0 10.7 8.7 19.3 19.3 19.3s19.3-8.7 19.3-19.3c0.2-51.7-49.3-93.8-110.3-93.8z"  horiz-adv-x="1024" />

    
    <glyph glyph-name="play" unicode="&#58937;" d="M556.196 175.944l-150.508 29.552c2.171 16.712 3.769 32.85 4.65 48.313l103.178 69.283a1307.648 1307.648 0 0 0 42.68-147.148zM432.62 490.332l-50.893-34.16c4.649-11.715 9.052-24.064 12.82-37.458l86.876-17.06c-13.906 29.819-29.43 58.45-46.878 84.807a82.74 82.74 0 0 0-1.925 3.871z m76.021-153.825a917.094 917.094 0 0 1-20.213 49.684l-90.194 17.716c9.236-37.745 14.438-81.736 12.902-132.854l97.505 65.454zM248.996 571.228a42.27 42.27 0 0 1-2.765-14.725c0-16.568 9.462-30.781 23.224-38.01-1.454-4.916-2.478-10.016-2.478-15.36a54.886 54.886 0 0 1 54.866-54.887 54.723 54.723 0 0 1 49.52 31.62c1.68-3.48 3.4-6.942 5.018-10.649l50.463 33.936a212.746 212.746 0 0 1-2.355 5.181 178.504 178.504 0 0 0-8.233 19.907c6.287-3.584 13.455-5.817 21.217-5.817a43.008 43.008 0 1 1-30.576 73.216c4.649 62.833 46.366 119.255 111.308 150.938a189.481 189.481 0 0 0 181.064-8.13c-52.88 73.81-152.72 101.13-237.158 59.924a188.928 188.928 0 0 1-98.284-115.65c-0.205 36.515 9.79 68.382 37.888 98.037A189.399 189.399 0 0 0 593.04 832.164C523.1 890.184 419.594 891.228 348.385 829.972a188.887 188.887 0 0 1-65.68-133.96c-33.627 50.361-96.01 77.19-158.33 62.28-71.639-17.1-118.559-83.374-113.807-154.46a148.582 148.582 0 0 0 105.676 95.15 148.746 148.746 0 0 0 157.41-60.928 188.969 188.969 0 0 1-153.273-6.328C36.168 590.131-3.339 494.51 22.712 407.47a189.174 189.174 0 0 0 226.284 163.758zM627.589 53.72l69.796 13.722c-1.024 7.762-1.761 15.237-2.17 22.405l-47.863 32.133a609.894 609.894 0 0 1-19.763-68.26z m80.958 130.048l-23.634 15.852c-0.43-0.881-0.738-1.536-0.901-1.782a304.906 304.906 0 0 1-21.77-39.363l40.283 7.946a171.897 171.897 0 0 0 6.022 17.347z m-49.562-32.522c-3.338-7.557-6.43-15.299-9.36-23.081l45.22-30.331c-0.716 23.716 1.66 44.093 6.001 61.665l-41.861-8.253z m-48.517 206.889a88.044 88.044 0 0 0 88.78-23.88c13.005-13.742 17.654-28.488 17.552-45.425a87.777 87.777 0 0 1-45.609 53.658 88.084 88.084 0 0 1-110.08-27.812 88.023 88.023 0 0 0 84.05 3.769c30.147-14.685 49.52-40.879 51.63-70.022a19.988 19.988 0 1 1-14.193-33.976c3.584 0 6.902 1.024 9.81 2.662-1.065-3.072-2.293-6.164-3.809-9.236a31.867 31.867 0 0 0-1.106-2.417l23.45-15.708c0.737 1.66 1.536 3.297 2.314 4.915a25.375 25.375 0 0 1 48.415 10.773c0 2.457-0.45 4.874-1.127 7.147a19.845 19.845 0 0 1 10.793 17.613 19.436 19.436 0 0 1-1.29 6.84 87.736 87.736 0 0 0 56.586-7.25 88.023 88.023 0 0 0 48.415-68.71 87.962 87.962 0 0 1-45.322 104.018 87.634 87.634 0 0 1-71.127 2.929 69.12 69.12 0 0 0 73.01 28.324 69.018 69.018 0 0 0 49.01-44.155 68.997 68.997 0 0 1-126.28 42.762 87.49 87.49 0 0 1-30.433 62.157 87.798 87.798 0 0 1-113.44 1.024z m109.343-379.74c-10.896 30.535-17.92 58.122-21.607 82.657l-72.171-14.213a783.133 783.133 0 0 1-4.424-21.258l68.772-46.203-11.96 0.327-58.102 39.056a840.61 840.61 0 0 1-5.98-37.888c-8.254 0.123-16.65 0.123-24.986 0.164a1742.54 1742.54 0 0 1-17.592 119.48L388.588-22.508c-9.073-0.41-17.9-0.84-26.665-1.29L568.975 115.22a1662.874 1662.874 0 0 1-9.42 45.917l-155.669 30.576c-9.462-63.12-28.774-135.127-60.887-216.535-134.226-7.68-224.83-22.036-224.83-38.502 0-24.556 200.5-44.483 447.796-44.483 247.316 0 447.775 19.927 447.775 44.483 0.02 19.21-122.532 35.533-293.93 41.718z"  horiz-adv-x="1024" />

    
    <glyph glyph-name="new" unicode="&#58938;" d="M63.558314-45.218243V570.876953c0.698998 1.397996 1.796995 2.595992 1.996994 4.093988 6.78998 47.82986 40.240882 76.986774 88.269741 76.986774h223.073347c-4.093988 5.791983-6.589981 9.286973-9.186973 12.781963-41.837877 56.716834-83.976754 113.133669-125.115634 170.249501-5.691983 7.888977-8.986974 19.371943-8.986973 29.157914 0 14.278958 12.281964 26.360923 25.661924 29.056915 16.475952 3.29499 29.156915-2.695992 39.142886-16.275952 52.821845-71.894789 105.94469-143.48958 158.666535-215.384369 5.092985-6.98998 10.28497-10.08497 19.072944-9.784971 23.564931 0.598998 47.229862 0.698998 70.895792 0 9.784971-0.299999 15.376955 3.194991 20.968939 10.883968 52.422846 71.59479 105.045692 143.089581 158.367536 213.985373 5.790983 7.689977 16.075953 14.079959 25.462925 16.575951 14.677957 3.893989 27.35992-3.094991 34.947898-16.375952 7.888977-13.67996 6.091982-27.25992-3.29499-39.940883-42.636875-57.615831-85.17475-115.231662-127.612627-172.946493-2.495993-3.29499-4.592987-6.88998-7.787977-11.782966 77.086774 0 151.577556 0.1 226.167338 0 38.942886-0.1 71.395791-24.962927 81.979759-62.607816 1.697995-6.090982 3.095991-12.281964 4.593987-18.372946v-616.096195c-4.293987-13.279961-6.98998-27.45992-13.180961-39.740884-12.381964-24.264929-34.948898-36.047894-60.111824-43.336873h-750.497802c-2.596992 0.998997-5.092985 2.096994-7.689977 2.895992-33.050903 9.984971-53.919842 31.652907-62.307817 65.203808-1.397996 4.593987-2.396993 9.685972-3.49499 14.678957z m449.240684 621.38818H218.230861c-44.833869 0-74.289782-29.356914-74.389782-73.991783V103.662321c0-45.033868 29.855913-75.08978 74.98978-75.08978 195.612427-0.1 391.125854-0.1 586.738281 0 45.133868 0 74.98978 30.154912 74.98978 75.08978V500.880158c0 46.231865-29.056915 75.18978-75.589778 75.189779-97.455714 0.1-194.813429 0.1-292.170144 0.1z m44.633869-624.184171c0.199999 25.362926-20.36994 46.331864-45.232868 46.331864-24.364929 0-45.033868-20.669939-45.133867-45.233868-0.199999-25.561925 19.969941-46.031865 45.233867-45.931865 24.762927 0.1 44.933868 20.069941 45.132868 44.833869z m-176.440483 27.659919c-15.077956 0.1-26.959921-11.683966-26.959921-26.860922-0.1-15.177956 11.681966-27.15992 26.659922-27.25992 14.778957-0.1 27.059921 12.181964 27.25992 26.959921 0 14.777957-12.081965 27.059921-26.959921 27.159921z m289.475152-26.960921c0 15.077956-11.982965 26.959921-26.959921 26.959921-14.878956 0-27.060921-12.281964-26.960921-27.059921 0.1-14.678957 12.481963-27.059921 27.15992-27.059921 14.777957 0 26.759922 12.081965 26.759922 27.159921zM664.476553 382.653504c-14.179958-50.924851-27.959918-100.552705-42.038877-150.779558-3.29499-0.298999-6.489981-0.198999-9.585971-0.797998-9.385973-1.696995-13.67996 2.096994-15.975954 11.382967-5.092985 19.970941-11.383967 39.641884-18.173946 62.807816-7.787977-26.659922-14.677957-49.826854-21.567937-73.491785h-21.867936c-13.879959 49.626855-27.759919 99.553708-42.038877 150.379559h36.446893c5.391984-22.067935 10.783968-43.735872 16.076953-65.403808 0.698998-0.199999 1.397996-0.299999 1.996994-0.499999 4.292987 15.277955 8.586975 30.455911 12.879963 45.732867 6.091982 21.767936 6.091982 21.767936 30.45591 20.069941a74434.106931 74434.106931 0 0 1 19.171944-69.496797c5.491984 22.066935 10.783968 40.739881 14.578957 59.711825 1.796995 8.886974 5.591984 11.283967 13.979959 10.584969 8.086976-0.799998 16.274952-0.199999 25.661925-0.199999z m-337.106012-0.399999h36.147894v-151.177557c-10.784968 0-21.269938-0.599998-31.653907 0.299999-3.29499 0.299999-7.588978 3.993988-9.186973 7.288979-11.582966 22.766933-22.665934 45.832866-35.746896 68.699799v-75.28978h-35.547895V382.653504c11.083968 0 21.667937 0.599998 32.152905-0.399999 3.194991-0.298999 7.189979-4.592987 8.786975-7.987976 11.282967-23.464931 21.967936-47.129862 35.047897-70.695793v78.684769z m417.188778-40.93988c-1.597995 3.694989-2.796992 7.689977-4.892986 10.983968-5.491984 8.387975-17.374949 9.985971-24.464928 3.694989-6.289982-5.591984-6.389981-16.375952 1.098996-22.666934 5.491984-4.492987 12.680963-6.88998 18.971945-10.483969 11.282967-6.390981 23.96493-11.083968 33.250902-19.571942 24.563928-22.366934 16.076953-59.711825-15.376954-70.495794-17.873948-6.190982-36.046894-5.791983-53.820843 0.997997-16.97595 6.489981-26.959921 22.366934-26.461922 41.838878h33.151903c1.097997-3.39499 1.297996-8.387975 3.893988-10.684969 5.092985-4.492987 11.183967-9.684972 17.473949-10.483969 4.393987-0.599998 12.481963 4.792986 13.67996 9.085973 1.597995 5.491984-0.1 13.979959-3.693989 18.572946-4.493987 5.691983-12.281964 8.886974-18.971945 12.581963-9.585972 5.391984-19.870942 9.485972-28.957915 15.476954-14.278958 9.385973-20.069941 23.365932-17.07495 40.140883 2.695992 15.177956 12.381964 25.562925 26.859921 30.55591 20.46994 7.089979 40.93988 6.88998 60.012825-4.393987 12.580963-7.488978 19.171944-19.271944 19.769942-34.948898-11.781965-0.199999-23.064932-0.199999-34.448899-0.199999z m-316.236074-19.170944h47.529861v-24.763927h-47.629861v-41.938877h55.218839v-24.06393c-23.86493 0-47.82986-1.098997-71.594791 0.498999-11.782965 0.798998-20.069941 10.583969-20.26994 22.765933-0.599998 42.238876-0.199999 84.476753-0.2 127.213627h90.067737v-23.365931h-53.121845v-36.345894z"  horiz-adv-x="1024" />

    
    <glyph glyph-name="send" unicode="&#58939;" d="M199.772 504.279c-3.466-7.373-4.808-15.933-3.405-24.765 3.508-22.032 25.728-37.658 47.586-33.454 8.811 1.694 16.42 5.867 22.185 11.622 9.615 9.59 14.13 23.588 10.629 37.873-1.234 5.033 0.02 7.782 3.369 11.12 63.344 63.181 126.587 126.49 189.916 189.696 1.807 1.802 4.336 2.883 6.533 4.296-1.024 0.215-2.053 0.425-3.077 0.64-7.527 11.848-15.053 23.695-23.383 36.802-0.737-1.013-1.792-2.97-3.303-4.485-65.976-66.048-132.034-132.019-197.923-198.149-4.885-4.905-9.631-7.803-16.937-8.504-14.726-1.413-26.414-10.399-32.19-22.692zM983.496 529.219c-3.892 7.004-9.436 12.4-18.125 14.679-0.005 0-0.01 0-0.015 0.005-2.673 0.701-5.494 1.147-8.254 1.152-47.227 0.066-94.449 0.05-141.67 0.036-1.45 0-2.883-0.22-6.283-0.497 0.01 0 0.016 0 0.026-0.005h-0.01c6.108-0.686 11.75-1.89 16.927-3.625 15.513-5.223 26.792-15.288 33.674-30.93 9.733-22.124 6.646-43.336-9.344-61.476-14.306-16.23-32.236-22.845-52.265-19.128a69.133 69.133 0 0 0-8.684 2.222c-23.173 7.521-37.17 24.279-39.388 48.676-0.875 9.584-4.198 16.225-10.644 22.702-12.457 12.523-24.233 25.718-36.593 38.349-1.47 1.51-3.81 2.76-6.072 3.292a9.665 9.665 0 0 1-2.212 0.281c-115.144 0.174-230.293 0.174-345.436 0.01-2.596-0.005-5.868-1.428-7.68-3.302a2671.234 2671.234 0 0 1-44.37-47.017c-1.618-1.761-2.36-4.935-2.386-7.465-0.318-31.385-22.912-55.864-54.231-58.5-9.057-0.764-17.915 0.854-25.959 4.351-17.705 7.695-31.482 24.49-34.826 45.082-5.238 32.286 18.1 61.788 52.373 66.985h-0.041c0.005 0 0.015 0.005 0.025 0.005h-6.855c-41.83 0-83.677-0.6-125.492 0.271-18.97 0.4-32.722-5.002-39.49-23.588-0.005-0.01-0.01-0.025-0.016-0.036v-546.186c3.006-8.929 7.568-16.322 15.197-20.562 2.544-1.413 5.427-2.478 8.709-3.138 2.928-0.589 5.99-0.743 8.99-0.748 287.064-0.036 574.127 0.005 861.195-0.107 16.788 0 26.9 8.269 32.63 23.25V521.738c-0.989 2.637-2.105 5.151-3.405 7.48zM821.99 361.042a7.869 7.869 0 0 0 1.782 0.113c1.936-0.077 4.127-0.707 4.859-1.787 8.033-11.92 15.631-24.141 24.5-38.083-34.161-5.796-66.99-11.371-100.445-17.05v-20.341h93.133v-45.578h-93.26v-20.117h116.428v-45.03c-2.36-0.139-4.839-0.415-7.311-0.42-33.419-0.03-66.863-0.02-100.28-0.02-9.222 0-9.176-0.01-9.242-9.555-0.103-13.578 0.138-27.187-0.523-40.734-0.542-11.126-4.725-20.07-11.873-25.836-0.333-0.271-0.604-0.604-0.957-0.86-0.17-0.123-0.38-0.205-0.548-0.323-4.588-3.21-10.23-5.242-16.891-5.76-11.704-0.91-23.46-1.146-35.226-1.213-3.927-0.02-7.844-0.026-11.77-0.03-5.228-0.011-10.46-0.021-15.683-0.078-1.29-0.01-3.461 1.332-3.768 2.453-3.943 14.28-7.619 28.631-11.5 43.469l59.182 25.922c0 12.544 0 12.544-12.703 12.544H574.357v45.148h127.84V238.1H599.819v45.343H702.09V300.13c-5.903 0-11.796 0.026-17.68 0.036-5.877 0.01-11.755 0-17.627-0.066-18.54-0.226-37.064-0.697-55.598-0.8-2.13-0.015-5.556 1.173-6.2 2.72-5.448 13.045-10.4 26.306-16.103 41.041 6.44 0 12.605-0.02 18.626-0.025 6.016-0.01 11.894-0.005 17.772 0.04 66.058 0.503 131.748 5.203 196.71 17.967zM211.103 111.759c-2.437-0.005-4.25 0.215-5.545 0.84-2.16 1.045-2.893 3.22-2.714 7.368 0.548 12.452 0.159 24.94 0.159 37.944h295.48V111.892h-7.874-0.021c-93.163 0.006-186.327 0.082-279.485-0.133z m21.232 177.531v45.65h237.84v-45.65h-237.84zM573.988 699.254c1.055-0.738 2.662-1.854 4.019-3.216 62.249-62.187 124.437-124.431 186.752-186.552 3.558-3.548 4.787-6.277 3.149-11.576-5.238-16.973 1.218-34.33 14.443-44.201 4.409-3.292 9.565-5.75 15.294-7.086 23.362-5.448 45.65 9.313 49.93 33.075 2.596 14.362-2.795 28.16-12.938 37.268-6.083 5.469-13.88 9.252-22.692 10.46-3.456 0.472-7.276 2.57-9.784 5.07-67.22 66.974-134.293 134.092-201.324 201.256-0.307 0.308-0.548 0.656-0.804 1.004-1.167 1.608-1.853 3.492-2.355 4.362l-0.005-0.005c0 0.005-0.005 0.01-0.005 0.01l-24.53-39.265c0.2-0.154 0.497-0.358 0.85-0.604zM469.396 746.813c2.069-10.332 7-19.543 13.88-26.88 0.37-0.394 0.702-0.814 1.081-1.193 0.655-0.66 1.372-1.254 2.058-1.879 0.62-0.563 1.209-1.162 1.854-1.694 0.394-0.323 0.824-0.604 1.229-0.922 9.359-7.316 21.14-11.704 34.083-11.74 30.751-0.092 55.501 24.632 55.47 55.403 0 1.92-0.102 3.82-0.291 5.689-2.842 28.032-26.292 49.454-55.353 49.428-30.571-0.025-55.096-24.484-55.127-54.953 0-2.944 0.287-5.81 0.712-8.627 0.148-0.875 0.236-1.771 0.404-2.632z"  horiz-adv-x="1024" />

    


  </font>
</defs>
</svg>
